<svg xmlns="http://www.w3.org/2000/svg" version="1.1" xmlns:xlink="http://www.w3.org/1999/xlink" xmlns:svgjs="http://svgjs.com/svgjs" width="1440" height="560" preserveAspectRatio="none" viewBox="0 0 1440 560"><g mask="url(&quot;#SvgjsMask1000&quot;)" fill="none"><rect width="1440" height="560" x="0" y="0" fill="#0e2a47"></rect><path d="M911.11 449.64a19.9 19.9 0 1 0-20.1 34.35z" fill="#037b0b"></path><path d="M877.28 62.35L932.54 62.35L932.54 117.61L877.28 117.61z" stroke="#d3b714"></path><path d="M204.08 354.95L231.54 354.95L231.54 382.41L204.08 382.41z" fill="#e73635"></path><path d="M1245.92 552.58a36.55 36.55 0 1 0-54.64-48.56z" stroke="#e73635"></path><path d="M53.49 115.46L54.25 115.46L54.25 116.22L53.49 116.22z" stroke="#037b0b"></path><path d="M962.35 456.42L1013.1 456.42L1013.1 477.81L962.35 477.81z" fill="#037b0b"></path><path d="M183.32 533.02L201.81 533.02L201.81 551.51L183.32 551.51z" stroke="#037b0b"></path><path d="M501.57 385 a11.93 11.93 0 1 0 23.86 0 a11.93 11.93 0 1 0 -23.86 0z" fill="#d3b714"></path><path d="M730.89 474.56a26.25 26.25 0 1 0-36.18-38.04z" stroke="#d3b714"></path><path d="M599.58 123.74a9.59 9.59 0 1 0 13.11 14.01z" fill="#037b0b"></path><path d="M971.69 128.3a45.36 45.36 0 1 0 1.35 90.71z" stroke="#e73635"></path><path d="M993.66 323.05 a35.81 35.81 0 1 0 71.62 0 a35.81 35.81 0 1 0 -71.62 0z" fill="#d3b714"></path><path d="M1389.01 472.27L1392.01 472.27L1392.01 507.9L1389.01 507.9z" fill="#037b0b"></path><path d="M1093.18 518.39L1098.22 518.39L1098.22 530.56L1093.18 530.56z" stroke="#d3b714"></path><path d="M1155.39 376.6 a46.2 46.2 0 1 0 92.4 0 a46.2 46.2 0 1 0 -92.4 0z" stroke="#e73635"></path><path d="M1006.16 26.91a52.26 52.26 0 1 0-83.11 63.37z" fill="#e73635"></path><path d="M456.95 145.38a43.82 43.82 0 1 0 25.44-83.87z" fill="#e73635"></path><path d="M247.51 514.18L281.76 514.18L281.76 548.43L247.51 548.43z" fill="#037b0b"></path><path d="M193.11 276.59a43.88 43.88 0 1 0 34.28-80.79z" stroke="#d3b714"></path><path d="M261.63 59.94a53.71 53.71 0 1 0-104.34 25.55z" stroke="#d3b714"></path><path d="M341.09 240.76a25.39 25.39 0 1 0 1.92-50.74z" fill="#037b0b"></path><path d="M539.55 230.75L594.57 230.75L594.57 262.95L539.55 262.95z" stroke="#d3b714"></path><path d="M692.97 185.48 a8.08 8.08 0 1 0 16.16 0 a8.08 8.08 0 1 0 -16.16 0z" stroke="#d3b714"></path><path d="M1074.45 371.99 a44.09 44.09 0 1 0 88.18 0 a44.09 44.09 0 1 0 -88.18 0z" stroke="#d3b714"></path><path d="M567.47 280.89a29.85 29.85 0 1 0 57.38 16.46z" fill="#037b0b"></path><path d="M1377.74 340.26 a47.56 47.56 0 1 0 95.12 0 a47.56 47.56 0 1 0 -95.12 0z" stroke="#e73635"></path><path d="M1169.69 370.11a46.61 46.61 0 1 0 19.97 91.06z" stroke="#e73635"></path><path d="M500.06 356.7 a38.78 38.78 0 1 0 77.56 0 a38.78 38.78 0 1 0 -77.56 0z" stroke="#e73635"></path><path d="M775.82 306.85L782.56 306.85L782.56 330.3L775.82 330.3z" stroke="#e73635"></path><path d="M990.06 336.24a6.01 6.01 0 1 0-6.79-9.91z" stroke="#d3b714"></path><path d="M823.19 279.65L869.29 279.65L869.29 325.75L823.19 325.75z" fill="#037b0b"></path><path d="M1424.04 532.25L1462.4 532.25L1462.4 543.65L1424.04 543.65z" fill="#e73635"></path><path d="M432.38 300.12 a29.12 29.12 0 1 0 58.24 0 a29.12 29.12 0 1 0 -58.24 0z" stroke="#037b0b"></path></g><defs><mask id="SvgjsMask1000"><rect width="1440" height="560" fill="#ffffff"></rect></mask></defs></svg>